HIERARCHY
ROOT SpineBase
{
  OFFSET 0.000000 0.000000 0.000000
  CHANNELS 6 Xposition Yposition Zposition Zrotation Xrotation Yrotation
  JOINT SpineMid
  {
    OFFSET 0.000000 25.505627 0.000000
    CHANNELS 3 Zrotation Xrotation Yrotation
    JOINT SpineShoulder
    {
      OFFSET -0.036280 18.834476 -0.696682
      CHANNELS 3 Zrotation Xrotation Yrotation
      JOINT Neck
      {
        OFFSET -0.035683 6.180375 -0.541074
        CHANNELS 3 Zrotation Xrotation Yrotation
        JOINT Head
        {
          OFFSET 6.659931 10.558214 -2.638788
          CHANNELS 3 Zrotation Xrotation Yrotation
          End Site
          {
            OFFSET 0 0 0
          }
        }
      }
      JOINT ShoulderLeft
      {
        OFFSET -15.919854 1.837296 -9.007020
        CHANNELS 3 Zrotation Xrotation Yrotation
        JOINT ElbowLeft
        {
          OFFSET -16.929358 -16.446110 0.270038
          CHANNELS 3 Zrotation Xrotation Yrotation
          JOINT WristLeft
          {
            OFFSET -2.869061 -17.047834 -18.095774
            CHANNELS 3 Zrotation Xrotation Yrotation
            JOINT HandLeft
            {
              OFFSET 1.713980 -0.893175 -4.569243
              CHANNELS 3 Zrotation Xrotation Yrotation
              JOINT HandTipLeft
              {
                OFFSET 0.818720 -6.070290 -1.932151
                CHANNELS 3 Zrotation Xrotation Yrotation
                End Site
                {
                  OFFSET 0 0 0
                }
              }
              JOINT ThumbLeft
              {
                OFFSET -3.904994 -4.379350 5.327071
                CHANNELS 3 Zrotation Xrotation Yrotation
                End Site
                {
                  OFFSET 0 0 0
                }
              }
            }
          }
        }
      }
      JOINT ShoulderRight
      {
        OFFSET 9.090669 -9.080436 3.588653
        CHANNELS 3 Zrotation Xrotation Yrotation
        JOINT ElbowRight
        {
          OFFSET -0.850010 -22.297518 3.877581
          CHANNELS 3 Zrotation Xrotation Yrotation
          JOINT WristRight
          {
            OFFSET 9.781252 -17.219375 -7.875441
            CHANNELS 3 Zrotation Xrotation Yrotation
            JOINT HandRight
            {
              OFFSET 0.538362 -3.343425 -5.289654
              CHANNELS 3 Zrotation Xrotation Yrotation
              JOINT HandTipRight
              {
                OFFSET -1.567394 -5.158851 -1.568267
                CHANNELS 3 Zrotation Xrotation Yrotation
                End Site
                {
                  OFFSET 0 0 0
                }
              }
              JOINT ThumbRight
              {
                OFFSET 3.015664 2.750752 -2.355042
                CHANNELS 3 Zrotation Xrotation Yrotation
                End Site
                {
                  OFFSET 0 0 0
                }
              }
            }
          }
        }
      }
    }
  }
  JOINT HipLeft
  {
    OFFSET -6.326815 0.237570 -6.910019
    CHANNELS 3 Zrotation Xrotation Yrotation
    JOINT KneeLeft
    {
      OFFSET -8.351840 -8.500711 -28.980553
      CHANNELS 3 Zrotation Xrotation Yrotation
      JOINT AnkleLeft
      {
        OFFSET -14.335257 -31.620147 8.671381
        CHANNELS 3 Zrotation Xrotation Yrotation
        JOINT FootLeft
        {
          OFFSET -0.426937 -7.523499 -8.053251
          CHANNELS 3 Zrotation Xrotation Yrotation
          End Site
          {
            OFFSET 0 0 0
          }
        }
      }
    }
  }
  JOINT HipRight
  {
    OFFSET 5.723310 -0.185967 -0.123351
    CHANNELS 3 Zrotation Xrotation Yrotation
    JOINT KneeRight
    {
      OFFSET 4.940995 -16.268234 -25.710493
      CHANNELS 3 Zrotation Xrotation Yrotation
      JOINT AnkleRight
      {
        OFFSET -20.541768 -28.229790 11.795242
        CHANNELS 3 Zrotation Xrotation Yrotation
        JOINT FootRight
        {
          OFFSET -2.192665 -7.113402 -4.041265
          CHANNELS 3 Zrotation Xrotation Yrotation
          End Site
          {
            OFFSET 0 0 0
          }
        }
      }
    }
  }
}
MOTION
Frames: 14
Frame Time: 0.033333
20.731894 59.473395 390.308047 -26.070034 -15.528603 -8.622895 -0.007199 0.015837 4.022277 0.209604 0.129305 -1.338535 24.016620 24.230257 -6.249917 0.000000 0.000000 0.000000 -82.792215 51.176017 23.344755 173.893770 76.167067 -96.959723 4.855246 -25.443599 7.608426 73.243273 35.446015 42.349909 0.000000 0.000000 0.000000 0.000000 0.000000 0.000000 130.792845 -10.334759 18.464870 56.776466 31.885336 -114.960369 -30.796292 8.829325 -50.890903 -3.524679 21.137074 -45.110329 0.000000 0.000000 0.000000 0.000000 0.000000 0.000000 32.091317 2.029814 -19.347207 -14.171563 12.851808 19.949186 0.955963 5.324210 1.369238 0.000000 0.000000 0.000000 34.891871 0.690998 -26.856613 -14.341984 16.199294 26.403555 8.509348 -3.969534 -5.914378 0.000000 0.000000 0.000000
20.791099 59.568728 390.448729 -26.132513 -15.791780 -7.936354 -0.011368 0.206820 3.305108 0.176883 0.172013 -1.328997 23.843562 23.644583 -5.827728 0.000000 0.000000 0.000000 -82.346970 54.372926 23.749479 164.678944 74.415126 -88.395237 0.021932 -23.779573 6.100129 71.886416 36.544578 42.654822 0.000000 0.000000 0.000000 0.000000 0.000000 0.000000 128.327097 -8.709897 15.368690 55.800004 34.017740 -110.755387 -35.870213 13.522404 -47.952855 1.586742 20.490464 -45.554467 0.000000 0.000000 0.000000 0.000000 0.000000 0.000000 32.139816 1.884471 -20.099628 -14.080556 13.216139 19.864743 -0.844183 2.173574 3.293332 0.000000 0.000000 0.000000 34.542638 0.351791 -26.948784 -13.793011 16.417690 26.020911 11.452319 -10.405627 -4.778060 0.000000 0.000000 0.000000
20.859445 59.662898 390.665048 -26.181527 -16.107601 -7.409017 -0.005603 0.340204 2.723376 0.146525 0.198271 -1.322716 23.492203 23.303527 -5.486423 0.000000 0.000000 0.000000 -81.678538 57.008781 24.035697 155.905416 69.329169 -79.188447 -4.258144 -25.397846 3.857220 71.495825 36.497892 42.969688 0.000000 0.000000 0.000000 0.000000 0.000000 0.000000 124.883214 -6.584913 11.467513 59.926670 37.029660 -109.723826 -40.742565 12.642458 -45.695995 2.263881 24.561132 -47.843691 0.000000 0.000000 0.000000 0.000000 0.000000 0.000000 32.154958 1.891192 -20.667702 -13.944521 13.592945 19.699796 -2.196076 -1.527500 4.789464 0.000000 0.000000 0.000000 34.529691 0.148328 -27.662079 -13.915414 16.861305 25.970657 14.319316 -14.913923 -3.822764 0.000000 0.000000 0.000000
20.912984 59.725908 390.910623 -26.214358 -16.444521 -7.221280 -0.001876 0.438214 2.471324 0.127983 0.213108 -1.319170 23.160470 23.152176 -5.242849 0.000000 0.000000 0.000000 -80.686335 59.244294 24.092934 149.077873 63.122157 -70.977156 -9.772977 -27.873703 2.377516 70.878862 34.595548 42.075561 0.000000 0.000000 0.000000 0.000000 0.000000 0.000000 121.820903 -5.352428 9.020049 64.001941 40.162701 -110.174188 -42.000099 17.029865 -42.417045 6.876141 24.077759 -51.119001 0.000000 0.000000 0.000000 0.000000 0.000000 0.000000 32.153854 2.177850 -21.073700 -13.876113 13.817135 19.636585 -3.598746 -4.787811 6.408183 0.000000 0.000000 0.000000 34.301132 0.401380 -27.505251 -13.257796 17.013931 25.580277 15.806068 -14.986980 -4.829471 0.000000 0.000000 0.000000
20.947906 59.750967 391.152876 -26.239491 -16.748974 -7.296292 -0.002827 0.497216 2.482646 0.121553 0.213169 -1.319703 22.853947 23.128835 -5.075028 0.000000 0.000000 0.000000 -79.483215 61.303027 23.966606 143.010782 58.614982 -63.300282 -13.686393 -29.230209 0.964625 67.967549 33.410741 41.055521 0.000000 0.000000 0.000000 0.000000 0.000000 0.000000 118.511819 -4.263622 6.898839 69.349638 42.819016 -111.631719 -31.589917 10.224649 -45.479469 -4.834495 23.487838 -50.883480 0.000000 0.000000 0.000000 0.000000 0.000000 0.000000 32.147625 2.598822 -21.291746 -13.836641 13.976549 19.627800 -4.789713 -7.287029 7.780312 0.000000 0.000000 0.000000 33.973749 0.894376 -26.820633 -12.203952 16.994957 25.041184 16.243681 -10.352673 -8.092123 0.000000 0.000000 0.000000
20.950328 59.732282 391.354736 -26.248261 -16.952534 -7.620686 -0.001412 0.515401 2.760555 0.126317 0.209081 -1.321080 22.282641 22.955253 -4.803067 0.000000 0.000000 0.000000 -78.181499 62.814502 23.579408 137.645077 56.788888 -56.949399 -16.114315 -30.034339 1.164113 64.139407 30.704162 40.720328 0.000000 0.000000 0.000000 0.000000 0.000000 0.000000 116.870500 -2.864616 4.887358 68.367375 44.143135 -108.478653 -31.312380 11.749978 -44.943449 -3.673284 25.661379 -52.411412 0.000000 0.000000 0.000000 0.000000 0.000000 0.000000 32.131532 3.178248 -21.355889 -13.848862 14.022583 19.692676 -5.516932 -8.424110 8.635035 0.000000 0.000000 0.000000 33.740173 1.435538 -26.080325 -11.293292 16.935000 24.685506 16.171400 -8.708508 -9.494368 0.000000 0.000000 0.000000
20.969339 59.656325 391.517052 -26.222163 -17.077910 -8.209286 -0.013468 0.455205 3.312137 0.136711 0.169846 -1.330291 21.720601 22.794131 -4.528262 0.000000 0.000000 0.000000 -77.951369 64.319122 23.847142 132.134604 57.340782 -50.900099 -16.274906 -29.858891 1.056964 61.558928 28.806096 41.105767 0.000000 0.000000 0.000000 0.000000 0.000000 0.000000 115.129382 -1.929347 3.434962 66.499400 43.629228 -104.186462 -28.936035 10.392925 -46.527265 -6.249447 26.091778 -51.867662 0.000000 0.000000 0.000000 0.000000 0.000000 0.000000 32.071255 3.921537 -21.191875 -13.802960 14.024141 19.777950 -5.713330 -7.994421 8.745409 0.000000 0.000000 0.000000 33.510841 2.144308 -25.078673 -10.369156 16.698122 24.370581 16.047928 -6.933662 -10.946001 0.000000 0.000000 0.000000
20.990733 59.539121 391.586562 -26.129026 -17.080029 -8.908976 -0.050621 0.330231 4.006542 0.156969 0.095994 -1.346539 21.027695 22.631794 -4.251858 0.000000 0.000000 0.000000 -77.798348 65.404833 24.047226 125.679472 59.247840 -44.506390 -11.917191 -32.571847 0.140101 63.570110 31.121741 37.592925 0.000000 0.000000 0.000000 0.000000 0.000000 0.000000 114.199277 -1.643454 2.837308 65.259999 43.044223 -101.838984 -29.671385 10.207363 -46.895374 -5.814159 25.845077 -50.802141 0.000000 0.000000 0.000000 0.000000 0.000000 0.000000 31.941064 4.654291 -20.847119 -13.823898 14.044182 19.828023 -5.136244 -5.728635 8.005954 0.000000 0.000000 0.000000 33.305430 2.851169 -24.042772 -9.424870 16.410902 24.222427 16.335898 -6.163290 -12.284313 0.000000 0.000000 0.000000
21.057798 59.461375 391.697326 -26.018166 -17.196642 -9.397024 -0.048691 0.284832 4.478234 0.209562 0.078510 -1.348686 20.089688 22.453511 -3.949786 0.000000 0.000000 0.000000 -76.984739 66.633028 23.738222 118.744853 61.108033 -38.497223 -6.332164 -36.095465 -0.992455 60.372872 34.111893 36.967013 0.000000 0.000000 0.000000 0.000000 0.000000 0.000000 112.115276 -0.936049 1.793352 68.541664 43.513296 -102.382259 -26.294280 6.814920 -48.270886 -9.608610 25.588481 -50.841519 0.000000 0.000000 0.000000 0.000000 0.000000 0.000000 31.769669 5.380632 -20.619415 -13.929716 14.063277 19.745225 -5.109100 -5.280060 8.168144 0.000000 0.000000 0.000000 33.129904 3.464910 -23.417616 -8.694612 16.207385 24.189838 16.012952 -4.530305 -13.553547 0.000000 0.000000 0.000000
21.109741 59.403237 391.763008 -25.953404 -17.290685 -9.794660 -0.080078 0.211427 4.855065 0.220606 0.030389 -1.359394 19.323485 22.352003 -3.692639 0.000000 0.000000 0.000000 -75.638879 68.197607 23.200099 113.180999 61.129037 -33.560748 -7.266775 -33.579940 -1.545947 58.580642 30.907171 40.940766 0.000000 0.000000 0.000000 0.000000 0.000000 0.000000 110.921175 -0.713093 1.275547 73.498058 45.121415 -106.056226 -24.074490 6.333547 -47.777887 -9.241872 23.244361 -51.643641 0.000000 0.000000 0.000000 0.000000 0.000000 0.000000 31.650457 5.962151 -20.440509 -14.129676 14.270900 19.600536 -4.973052 -4.432866 8.249518 0.000000 0.000000 0.000000 33.124549 3.867099 -23.225733 -8.387202 16.102318 24.422877 15.991248 -3.233231 -14.618136 0.000000 0.000000 0.000000
21.166591 59.318452 391.842561 -25.949549 -17.429083 -9.946571 -0.116392 0.143920 4.966200 0.214119 -0.019663 -1.372758 18.807782 22.448725 -3.557569 0.000000 0.000000 0.000000 -74.614527 69.563759 22.913605 109.479185 60.749951 -30.348311 -10.922668 -31.284371 0.570511 62.733807 27.617020 38.482815 0.000000 0.000000 0.000000 0.000000 0.000000 0.000000 110.108762 -0.522805 0.761572 75.632468 45.670795 -107.190774 -23.895609 9.299174 -46.946480 -6.502283 21.321540 -53.182831 0.000000 0.000000 0.000000 0.000000 0.000000 0.000000 31.587209 6.503919 -20.434514 -14.333117 14.419814 19.364930 -4.703390 -3.726043 8.297546 0.000000 0.000000 0.000000 33.164955 4.027507 -23.345369 -8.290909 16.055986 24.715290 16.745347 -3.068123 -15.467147 0.000000 0.000000 0.000000
21.230111 59.168747 391.925388 -25.973036 -17.577977 -10.151269 -0.182698 0.095601 5.130901 0.171832 -0.044827 -1.380730 18.649345 22.613131 -3.519315 0.000000 0.000000 0.000000 -74.075168 70.630501 22.940914 105.664895 61.446213 -27.424150 -12.871880 -30.731778 3.199586 67.090136 28.039927 32.086489 0.000000 0.000000 0.000000 0.000000 0.000000 0.000000 108.599295 0.101895 -0.146802 78.748026 46.047243 -107.994761 -21.248885 1.570949 -48.664529 -15.982639 23.900757 -52.203454 0.000000 0.000000 0.000000 0.000000 0.000000 0.000000 31.523823 7.135395 -20.308980 -14.540904 14.447808 19.048747 -4.181346 -3.218990 8.225795 0.000000 0.000000 0.000000 33.254770 4.176303 -23.528780 -8.435556 15.955541 25.072060 17.362442 -3.489211 -15.758961 0.000000 0.000000 0.000000
21.305259 58.993080 392.048336 -26.005215 -17.813680 -10.488917 -0.198805 0.015625 5.392574 0.160313 -0.057625 -1.386134 18.530118 23.377432 -3.778583 0.000000 0.000000 0.000000 -74.077328 71.657377 23.399889 102.539593 61.924423 -25.123180 -17.534274 -28.723530 7.221210 69.357739 24.443515 29.036397 0.000000 0.000000 0.000000 0.000000 0.000000 0.000000 108.531098 0.745282 -1.140306 75.781996 46.142128 -104.688528 -18.966448 -7.782928 -50.527213 -27.240511 27.924384 -48.242507 0.000000 0.000000 0.000000 0.000000 0.000000 0.000000 31.432322 7.858296 -20.020744 -14.723105 14.404121 18.697095 -3.412933 -2.770429 7.934745 0.000000 0.000000 0.000000 33.320888 4.592981 -23.542727 -8.401974 15.716627 25.365685 17.322673 -4.264321 -15.590923 0.000000 0.000000 0.000000
21.389739 58.830132 392.162518 -26.021712 -18.103929 -10.701746 -0.173632 -0.069871 5.512377 0.180621 -0.065218 -1.389829 18.393919 24.297851 -4.100886 0.000000 0.000000 0.000000 -73.385693 73.077151 23.373252 97.495178 62.637148 -21.622843 -20.275517 -27.244290 10.097205 72.420806 20.976337 28.341354 0.000000 0.000000 0.000000 0.000000 0.000000 0.000000 109.005416 1.535899 -2.342393 66.846530 46.323529 -96.854745 -18.104218 -5.597005 -50.353243 -25.882805 26.372198 -46.117021 0.000000 0.000000 0.000000 0.000000 0.000000 0.000000 31.336079 8.531819 -19.877920 -14.985759 14.257884 18.392643 -2.653470 -2.215826 7.739538 0.000000 0.000000 0.000000 33.418614 4.782829 -23.928754 -8.768063 15.715704 25.773744 16.971496 -4.814856 -15.036868 0.000000 0.000000 0.000000
